<svg xmlns="http://www.w3.org/2000/svg" viewBox="0 0 720 322" font-family="Georgia, 'Times New Roman', serif">
<rect width="720" height="322" fill="white"/>
<text x="360.0" y="26.0" font-family="Georgia, 'Times New Roman', serif" font-size="18" fill="#1a1a2e" text-anchor="middle" font-weight="bold" style="">Constellations: what more bits per symbol costs</text>
<rect x="35.0" y="70" width="210" height="210" fill="none" stroke="#1a1a2e" stroke-width="1.2"/>
<line x1="35.0" y1="175.0" x2="245.0" y2="175.0" stroke="#9a9aa5" stroke-width="0.8" opacity="1.0"/>
<line x1="140.0" y1="70.0" x2="140.0" y2="280.0" stroke="#9a9aa5" stroke-width="0.8" opacity="1.0"/>
<text x="140.0" y="302.0" font-family="Georgia, 'Times New Roman', serif" font-size="14.5" fill="#1a1a2e" text-anchor="middle" font-weight="normal" style="">QPSK — 2 bits</text>
<circle cx="74.8" cy="240.2" r="5" fill="#23527c"/>
<circle cx="74.8" cy="109.8" r="5" fill="#23527c"/>
<circle cx="205.2" cy="240.2" r="5" fill="#23527c"/>
<circle cx="205.2" cy="109.8" r="5" fill="#23527c"/>
<rect x="255.0" y="70" width="210" height="210" fill="none" stroke="#1a1a2e" stroke-width="1.2"/>
<line x1="255.0" y1="175.0" x2="465.0" y2="175.0" stroke="#9a9aa5" stroke-width="0.8" opacity="1.0"/>
<line x1="360.0" y1="70.0" x2="360.0" y2="280.0" stroke="#9a9aa5" stroke-width="0.8" opacity="1.0"/>
<text x="360.0" y="302.0" font-family="Georgia, 'Times New Roman', serif" font-size="14.5" fill="#1a1a2e" text-anchor="middle" font-weight="normal" style="">16-QAM — 4 bits</text>
<circle cx="273.1" cy="261.9" r="5" fill="#23527c"/>
<circle cx="273.1" cy="204.0" r="5" fill="#23527c"/>
<circle cx="273.1" cy="146.0" r="5" fill="#23527c"/>
<circle cx="273.1" cy="88.1" r="5" fill="#23527c"/>
<circle cx="331.0" cy="261.9" r="5" fill="#23527c"/>
<circle cx="331.0" cy="204.0" r="5" fill="#23527c"/>
<circle cx="331.0" cy="146.0" r="5" fill="#23527c"/>
<circle cx="331.0" cy="88.1" r="5" fill="#23527c"/>
<circle cx="389.0" cy="261.9" r="5" fill="#23527c"/>
<circle cx="389.0" cy="204.0" r="5" fill="#23527c"/>
<circle cx="389.0" cy="146.0" r="5" fill="#23527c"/>
<circle cx="389.0" cy="88.1" r="5" fill="#23527c"/>
<circle cx="446.9" cy="261.9" r="5" fill="#23527c"/>
<circle cx="446.9" cy="204.0" r="5" fill="#23527c"/>
<circle cx="446.9" cy="146.0" r="5" fill="#23527c"/>
<circle cx="446.9" cy="88.1" r="5" fill="#23527c"/>
<rect x="475.0" y="70" width="210" height="210" fill="none" stroke="#1a1a2e" stroke-width="1.2"/>
<line x1="475.0" y1="175.0" x2="685.0" y2="175.0" stroke="#9a9aa5" stroke-width="0.8" opacity="1.0"/>
<line x1="580.0" y1="70.0" x2="580.0" y2="280.0" stroke="#9a9aa5" stroke-width="0.8" opacity="1.0"/>
<text x="580.0" y="302.0" font-family="Georgia, 'Times New Roman', serif" font-size="14.5" fill="#1a1a2e" text-anchor="middle" font-weight="normal" style="">16-QAM at the receiver</text>
<circle cx="491.6" cy="257.7" r="2.1" fill="#23527c" opacity="0.45"/>
<circle cx="488.6" cy="277.8" r="2.1" fill="#23527c" opacity="0.45"/>
<circle cx="510.1" cy="255.1" r="2.1" fill="#23527c" opacity="0.45"/>
<circle cx="491.3" cy="246.9" r="2.1" fill="#23527c" opacity="0.45"/>
<circle cx="487.9" cy="257.4" r="2.1" fill="#23527c" opacity="0.45"/>
<circle cx="498.8" cy="267.7" r="2.1" fill="#23527c" opacity="0.45"/>
<circle cx="498.6" cy="266.5" r="2.1" fill="#23527c" opacity="0.45"/>
<circle cx="487.0" cy="269.2" r="2.1" fill="#23527c" opacity="0.45"/>
<circle cx="504.6" cy="264.9" r="2.1" fill="#23527c" opacity="0.45"/>
<circle cx="493.0" cy="256.5" r="2.1" fill="#23527c" opacity="0.45"/>
<circle cx="508.7" cy="272.7" r="2.1" fill="#23527c" opacity="0.45"/>
<circle cx="492.6" cy="262.5" r="2.1" fill="#23527c" opacity="0.45"/>
<circle cx="505.6" cy="265.5" r="2.1" fill="#23527c" opacity="0.45"/>
<circle cx="495.1" cy="259.4" r="2.1" fill="#23527c" opacity="0.45"/>
<circle cx="492.7" cy="189.1" r="2.1" fill="#23527c" opacity="0.45"/>
<circle cx="501.3" cy="194.6" r="2.1" fill="#23527c" opacity="0.45"/>
<circle cx="502.0" cy="211.9" r="2.1" fill="#23527c" opacity="0.45"/>
<circle cx="503.3" cy="194.5" r="2.1" fill="#23527c" opacity="0.45"/>
<circle cx="496.6" cy="216.9" r="2.1" fill="#23527c" opacity="0.45"/>
<circle cx="481.7" cy="214.8" r="2.1" fill="#23527c" opacity="0.45"/>
<circle cx="492.9" cy="205.8" r="2.1" fill="#23527c" opacity="0.45"/>
<circle cx="495.0" cy="202.0" r="2.1" fill="#23527c" opacity="0.45"/>
<circle cx="484.4" cy="188.6" r="2.1" fill="#23527c" opacity="0.45"/>
<circle cx="498.2" cy="201.4" r="2.1" fill="#23527c" opacity="0.45"/>
<circle cx="499.2" cy="221.4" r="2.1" fill="#23527c" opacity="0.45"/>
<circle cx="492.6" cy="199.7" r="2.1" fill="#23527c" opacity="0.45"/>
<circle cx="499.3" cy="214.0" r="2.1" fill="#23527c" opacity="0.45"/>
<circle cx="491.8" cy="204.5" r="2.1" fill="#23527c" opacity="0.45"/>
<circle cx="486.4" cy="135.1" r="2.1" fill="#23527c" opacity="0.45"/>
<circle cx="492.2" cy="150.8" r="2.1" fill="#23527c" opacity="0.45"/>
<circle cx="489.9" cy="155.6" r="2.1" fill="#23527c" opacity="0.45"/>
<circle cx="483.5" cy="154.1" r="2.1" fill="#23527c" opacity="0.45"/>
<circle cx="489.0" cy="139.3" r="2.1" fill="#23527c" opacity="0.45"/>
<circle cx="496.8" cy="136.1" r="2.1" fill="#23527c" opacity="0.45"/>
<circle cx="491.5" cy="139.5" r="2.1" fill="#23527c" opacity="0.45"/>
<circle cx="488.9" cy="149.7" r="2.1" fill="#23527c" opacity="0.45"/>
<circle cx="495.8" cy="159.9" r="2.1" fill="#23527c" opacity="0.45"/>
<circle cx="490.6" cy="145.4" r="2.1" fill="#23527c" opacity="0.45"/>
<circle cx="483.7" cy="151.6" r="2.1" fill="#23527c" opacity="0.45"/>
<circle cx="480.3" cy="144.0" r="2.1" fill="#23527c" opacity="0.45"/>
<circle cx="489.8" cy="129.5" r="2.1" fill="#23527c" opacity="0.45"/>
<circle cx="499.2" cy="164.3" r="2.1" fill="#23527c" opacity="0.45"/>
<circle cx="501.2" cy="88.6" r="2.1" fill="#23527c" opacity="0.45"/>
<circle cx="498.8" cy="92.4" r="2.1" fill="#23527c" opacity="0.45"/>
<circle cx="477.0" cy="85.1" r="2.1" fill="#23527c" opacity="0.45"/>
<circle cx="476.3" cy="88.6" r="2.1" fill="#23527c" opacity="0.45"/>
<circle cx="499.6" cy="93.1" r="2.1" fill="#23527c" opacity="0.45"/>
<circle cx="488.4" cy="87.9" r="2.1" fill="#23527c" opacity="0.45"/>
<circle cx="496.8" cy="90.6" r="2.1" fill="#23527c" opacity="0.45"/>
<circle cx="488.2" cy="80.8" r="2.1" fill="#23527c" opacity="0.45"/>
<circle cx="485.0" cy="92.8" r="2.1" fill="#23527c" opacity="0.45"/>
<circle cx="493.1" cy="88.6" r="2.1" fill="#23527c" opacity="0.45"/>
<circle cx="505.1" cy="90.5" r="2.1" fill="#23527c" opacity="0.45"/>
<circle cx="498.8" cy="80.3" r="2.1" fill="#23527c" opacity="0.45"/>
<circle cx="490.7" cy="91.1" r="2.1" fill="#23527c" opacity="0.45"/>
<circle cx="502.4" cy="93.9" r="2.1" fill="#23527c" opacity="0.45"/>
<circle cx="549.4" cy="263.3" r="2.1" fill="#23527c" opacity="0.45"/>
<circle cx="549.6" cy="266.3" r="2.1" fill="#23527c" opacity="0.45"/>
<circle cx="558.9" cy="270.8" r="2.1" fill="#23527c" opacity="0.45"/>
<circle cx="557.7" cy="269.3" r="2.1" fill="#23527c" opacity="0.45"/>
<circle cx="550.4" cy="256.0" r="2.1" fill="#23527c" opacity="0.45"/>
<circle cx="550.0" cy="264.4" r="2.1" fill="#23527c" opacity="0.45"/>
<circle cx="553.5" cy="248.6" r="2.1" fill="#23527c" opacity="0.45"/>
<circle cx="556.7" cy="259.9" r="2.1" fill="#23527c" opacity="0.45"/>
<circle cx="548.7" cy="272.7" r="2.1" fill="#23527c" opacity="0.45"/>
<circle cx="548.2" cy="268.6" r="2.1" fill="#23527c" opacity="0.45"/>
<circle cx="551.9" cy="260.5" r="2.1" fill="#23527c" opacity="0.45"/>
<circle cx="552.6" cy="254.8" r="2.1" fill="#23527c" opacity="0.45"/>
<circle cx="571.7" cy="265.2" r="2.1" fill="#23527c" opacity="0.45"/>
<circle cx="544.1" cy="255.8" r="2.1" fill="#23527c" opacity="0.45"/>
<circle cx="549.1" cy="215.9" r="2.1" fill="#23527c" opacity="0.45"/>
<circle cx="552.4" cy="204.8" r="2.1" fill="#23527c" opacity="0.45"/>
<circle cx="563.9" cy="202.6" r="2.1" fill="#23527c" opacity="0.45"/>
<circle cx="548.9" cy="205.4" r="2.1" fill="#23527c" opacity="0.45"/>
<circle cx="548.0" cy="191.9" r="2.1" fill="#23527c" opacity="0.45"/>
<circle cx="554.1" cy="211.9" r="2.1" fill="#23527c" opacity="0.45"/>
<circle cx="553.7" cy="197.8" r="2.1" fill="#23527c" opacity="0.45"/>
<circle cx="550.5" cy="203.2" r="2.1" fill="#23527c" opacity="0.45"/>
<circle cx="545.8" cy="209.0" r="2.1" fill="#23527c" opacity="0.45"/>
<circle cx="541.7" cy="202.7" r="2.1" fill="#23527c" opacity="0.45"/>
<circle cx="547.4" cy="209.6" r="2.1" fill="#23527c" opacity="0.45"/>
<circle cx="553.0" cy="202.5" r="2.1" fill="#23527c" opacity="0.45"/>
<circle cx="531.6" cy="204.1" r="2.1" fill="#23527c" opacity="0.45"/>
<circle cx="553.7" cy="202.5" r="2.1" fill="#23527c" opacity="0.45"/>
<circle cx="542.8" cy="144.5" r="2.1" fill="#23527c" opacity="0.45"/>
<circle cx="552.9" cy="135.7" r="2.1" fill="#23527c" opacity="0.45"/>
<circle cx="565.9" cy="143.9" r="2.1" fill="#23527c" opacity="0.45"/>
<circle cx="551.9" cy="152.2" r="2.1" fill="#23527c" opacity="0.45"/>
<circle cx="554.7" cy="153.8" r="2.1" fill="#23527c" opacity="0.45"/>
<circle cx="549.8" cy="145.5" r="2.1" fill="#23527c" opacity="0.45"/>
<circle cx="542.7" cy="145.9" r="2.1" fill="#23527c" opacity="0.45"/>
<circle cx="544.1" cy="158.1" r="2.1" fill="#23527c" opacity="0.45"/>
<circle cx="548.6" cy="149.5" r="2.1" fill="#23527c" opacity="0.45"/>
<circle cx="554.1" cy="141.1" r="2.1" fill="#23527c" opacity="0.45"/>
<circle cx="550.8" cy="157.1" r="2.1" fill="#23527c" opacity="0.45"/>
<circle cx="555.2" cy="149.4" r="2.1" fill="#23527c" opacity="0.45"/>
<circle cx="562.8" cy="143.6" r="2.1" fill="#23527c" opacity="0.45"/>
<circle cx="541.0" cy="138.3" r="2.1" fill="#23527c" opacity="0.45"/>
<circle cx="555.3" cy="94.3" r="2.1" fill="#23527c" opacity="0.45"/>
<circle cx="546.0" cy="89.0" r="2.1" fill="#23527c" opacity="0.45"/>
<circle cx="542.1" cy="72.8" r="2.1" fill="#23527c" opacity="0.45"/>
<circle cx="551.1" cy="99.3" r="2.1" fill="#23527c" opacity="0.45"/>
<circle cx="545.0" cy="88.1" r="2.1" fill="#23527c" opacity="0.45"/>
<circle cx="551.0" cy="103.2" r="2.1" fill="#23527c" opacity="0.45"/>
<circle cx="571.2" cy="85.2" r="2.1" fill="#23527c" opacity="0.45"/>
<circle cx="554.6" cy="84.1" r="2.1" fill="#23527c" opacity="0.45"/>
<circle cx="534.8" cy="83.9" r="2.1" fill="#23527c" opacity="0.45"/>
<circle cx="551.5" cy="87.7" r="2.1" fill="#23527c" opacity="0.45"/>
<circle cx="553.1" cy="81.4" r="2.1" fill="#23527c" opacity="0.45"/>
<circle cx="544.4" cy="81.1" r="2.1" fill="#23527c" opacity="0.45"/>
<circle cx="541.5" cy="101.1" r="2.1" fill="#23527c" opacity="0.45"/>
<circle cx="557.9" cy="98.0" r="2.1" fill="#23527c" opacity="0.45"/>
<circle cx="627.0" cy="264.0" r="2.1" fill="#23527c" opacity="0.45"/>
<circle cx="608.6" cy="263.5" r="2.1" fill="#23527c" opacity="0.45"/>
<circle cx="597.1" cy="261.1" r="2.1" fill="#23527c" opacity="0.45"/>
<circle cx="609.3" cy="274.9" r="2.1" fill="#23527c" opacity="0.45"/>
<circle cx="616.1" cy="264.4" r="2.1" fill="#23527c" opacity="0.45"/>
<circle cx="611.7" cy="262.2" r="2.1" fill="#23527c" opacity="0.45"/>
<circle cx="596.1" cy="251.5" r="2.1" fill="#23527c" opacity="0.45"/>
<circle cx="607.7" cy="273.0" r="2.1" fill="#23527c" opacity="0.45"/>
<circle cx="623.3" cy="256.2" r="2.1" fill="#23527c" opacity="0.45"/>
<circle cx="607.1" cy="281.3" r="2.1" fill="#23527c" opacity="0.45"/>
<circle cx="603.3" cy="250.9" r="2.1" fill="#23527c" opacity="0.45"/>
<circle cx="599.2" cy="261.8" r="2.1" fill="#23527c" opacity="0.45"/>
<circle cx="611.4" cy="260.1" r="2.1" fill="#23527c" opacity="0.45"/>
<circle cx="616.5" cy="271.8" r="2.1" fill="#23527c" opacity="0.45"/>
<circle cx="611.0" cy="190.7" r="2.1" fill="#23527c" opacity="0.45"/>
<circle cx="612.4" cy="206.5" r="2.1" fill="#23527c" opacity="0.45"/>
<circle cx="610.0" cy="205.8" r="2.1" fill="#23527c" opacity="0.45"/>
<circle cx="611.9" cy="212.3" r="2.1" fill="#23527c" opacity="0.45"/>
<circle cx="604.9" cy="213.3" r="2.1" fill="#23527c" opacity="0.45"/>
<circle cx="613.7" cy="209.6" r="2.1" fill="#23527c" opacity="0.45"/>
<circle cx="610.6" cy="205.7" r="2.1" fill="#23527c" opacity="0.45"/>
<circle cx="614.4" cy="200.7" r="2.1" fill="#23527c" opacity="0.45"/>
<circle cx="606.4" cy="203.2" r="2.1" fill="#23527c" opacity="0.45"/>
<circle cx="616.8" cy="202.6" r="2.1" fill="#23527c" opacity="0.45"/>
<circle cx="607.7" cy="210.4" r="2.1" fill="#23527c" opacity="0.45"/>
<circle cx="614.3" cy="215.0" r="2.1" fill="#23527c" opacity="0.45"/>
<circle cx="600.5" cy="209.8" r="2.1" fill="#23527c" opacity="0.45"/>
<circle cx="610.9" cy="205.9" r="2.1" fill="#23527c" opacity="0.45"/>
<circle cx="605.7" cy="145.0" r="2.1" fill="#23527c" opacity="0.45"/>
<circle cx="598.4" cy="153.0" r="2.1" fill="#23527c" opacity="0.45"/>
<circle cx="609.9" cy="151.7" r="2.1" fill="#23527c" opacity="0.45"/>
<circle cx="618.0" cy="141.3" r="2.1" fill="#23527c" opacity="0.45"/>
<circle cx="608.9" cy="137.0" r="2.1" fill="#23527c" opacity="0.45"/>
<circle cx="624.3" cy="147.1" r="2.1" fill="#23527c" opacity="0.45"/>
<circle cx="611.5" cy="145.1" r="2.1" fill="#23527c" opacity="0.45"/>
<circle cx="610.5" cy="152.0" r="2.1" fill="#23527c" opacity="0.45"/>
<circle cx="606.9" cy="152.0" r="2.1" fill="#23527c" opacity="0.45"/>
<circle cx="603.5" cy="129.9" r="2.1" fill="#23527c" opacity="0.45"/>
<circle cx="604.4" cy="147.0" r="2.1" fill="#23527c" opacity="0.45"/>
<circle cx="604.4" cy="151.2" r="2.1" fill="#23527c" opacity="0.45"/>
<circle cx="617.3" cy="139.6" r="2.1" fill="#23527c" opacity="0.45"/>
<circle cx="594.3" cy="152.4" r="2.1" fill="#23527c" opacity="0.45"/>
<circle cx="611.4" cy="104.4" r="2.1" fill="#23527c" opacity="0.45"/>
<circle cx="611.4" cy="86.0" r="2.1" fill="#23527c" opacity="0.45"/>
<circle cx="594.7" cy="89.4" r="2.1" fill="#23527c" opacity="0.45"/>
<circle cx="601.9" cy="82.4" r="2.1" fill="#23527c" opacity="0.45"/>
<circle cx="595.1" cy="77.2" r="2.1" fill="#23527c" opacity="0.45"/>
<circle cx="616.1" cy="82.1" r="2.1" fill="#23527c" opacity="0.45"/>
<circle cx="614.6" cy="98.9" r="2.1" fill="#23527c" opacity="0.45"/>
<circle cx="617.0" cy="86.3" r="2.1" fill="#23527c" opacity="0.45"/>
<circle cx="620.9" cy="81.7" r="2.1" fill="#23527c" opacity="0.45"/>
<circle cx="606.3" cy="90.1" r="2.1" fill="#23527c" opacity="0.45"/>
<circle cx="610.1" cy="91.1" r="2.1" fill="#23527c" opacity="0.45"/>
<circle cx="608.5" cy="83.6" r="2.1" fill="#23527c" opacity="0.45"/>
<circle cx="614.0" cy="75.3" r="2.1" fill="#23527c" opacity="0.45"/>
<circle cx="606.7" cy="92.1" r="2.1" fill="#23527c" opacity="0.45"/>
<circle cx="674.7" cy="252.7" r="2.1" fill="#23527c" opacity="0.45"/>
<circle cx="670.5" cy="276.2" r="2.1" fill="#23527c" opacity="0.45"/>
<circle cx="663.7" cy="260.2" r="2.1" fill="#23527c" opacity="0.45"/>
<circle cx="663.2" cy="280.3" r="2.1" fill="#23527c" opacity="0.45"/>
<circle cx="663.5" cy="247.9" r="2.1" fill="#23527c" opacity="0.45"/>
<circle cx="671.1" cy="258.9" r="2.1" fill="#23527c" opacity="0.45"/>
<circle cx="671.3" cy="258.9" r="2.1" fill="#23527c" opacity="0.45"/>
<circle cx="659.7" cy="268.0" r="2.1" fill="#23527c" opacity="0.45"/>
<circle cx="663.1" cy="255.2" r="2.1" fill="#23527c" opacity="0.45"/>
<circle cx="674.1" cy="249.5" r="2.1" fill="#23527c" opacity="0.45"/>
<circle cx="663.1" cy="273.8" r="2.1" fill="#23527c" opacity="0.45"/>
<circle cx="663.9" cy="268.2" r="2.1" fill="#23527c" opacity="0.45"/>
<circle cx="665.8" cy="258.3" r="2.1" fill="#23527c" opacity="0.45"/>
<circle cx="661.8" cy="263.4" r="2.1" fill="#23527c" opacity="0.45"/>
<circle cx="669.4" cy="192.4" r="2.1" fill="#23527c" opacity="0.45"/>
<circle cx="665.2" cy="202.9" r="2.1" fill="#23527c" opacity="0.45"/>
<circle cx="669.5" cy="204.7" r="2.1" fill="#23527c" opacity="0.45"/>
<circle cx="671.3" cy="215.5" r="2.1" fill="#23527c" opacity="0.45"/>
<circle cx="656.9" cy="189.1" r="2.1" fill="#23527c" opacity="0.45"/>
<circle cx="675.0" cy="207.7" r="2.1" fill="#23527c" opacity="0.45"/>
<circle cx="669.9" cy="203.3" r="2.1" fill="#23527c" opacity="0.45"/>
<circle cx="661.3" cy="207.6" r="2.1" fill="#23527c" opacity="0.45"/>
<circle cx="667.7" cy="201.5" r="2.1" fill="#23527c" opacity="0.45"/>
<circle cx="670.0" cy="204.4" r="2.1" fill="#23527c" opacity="0.45"/>
<circle cx="653.5" cy="193.2" r="2.1" fill="#23527c" opacity="0.45"/>
<circle cx="655.1" cy="216.0" r="2.1" fill="#23527c" opacity="0.45"/>
<circle cx="656.4" cy="211.6" r="2.1" fill="#23527c" opacity="0.45"/>
<circle cx="671.1" cy="208.9" r="2.1" fill="#23527c" opacity="0.45"/>
<circle cx="665.7" cy="138.6" r="2.1" fill="#23527c" opacity="0.45"/>
<circle cx="677.8" cy="131.3" r="2.1" fill="#23527c" opacity="0.45"/>
<circle cx="661.2" cy="137.5" r="2.1" fill="#23527c" opacity="0.45"/>
<circle cx="670.9" cy="138.3" r="2.1" fill="#23527c" opacity="0.45"/>
<circle cx="663.9" cy="143.4" r="2.1" fill="#23527c" opacity="0.45"/>
<circle cx="674.7" cy="150.3" r="2.1" fill="#23527c" opacity="0.45"/>
<circle cx="670.1" cy="150.8" r="2.1" fill="#23527c" opacity="0.45"/>
<circle cx="658.1" cy="150.0" r="2.1" fill="#23527c" opacity="0.45"/>
<circle cx="665.2" cy="140.7" r="2.1" fill="#23527c" opacity="0.45"/>
<circle cx="673.4" cy="153.8" r="2.1" fill="#23527c" opacity="0.45"/>
<circle cx="684.7" cy="138.8" r="2.1" fill="#23527c" opacity="0.45"/>
<circle cx="669.8" cy="134.5" r="2.1" fill="#23527c" opacity="0.45"/>
<circle cx="666.3" cy="145.7" r="2.1" fill="#23527c" opacity="0.45"/>
<circle cx="657.8" cy="138.3" r="2.1" fill="#23527c" opacity="0.45"/>
<circle cx="672.2" cy="95.6" r="2.1" fill="#23527c" opacity="0.45"/>
<circle cx="661.7" cy="93.5" r="2.1" fill="#23527c" opacity="0.45"/>
<circle cx="682.4" cy="88.1" r="2.1" fill="#23527c" opacity="0.45"/>
<circle cx="665.5" cy="82.9" r="2.1" fill="#23527c" opacity="0.45"/>
<circle cx="667.4" cy="90.6" r="2.1" fill="#23527c" opacity="0.45"/>
<circle cx="659.1" cy="96.0" r="2.1" fill="#23527c" opacity="0.45"/>
<circle cx="668.9" cy="84.4" r="2.1" fill="#23527c" opacity="0.45"/>
<circle cx="661.7" cy="87.0" r="2.1" fill="#23527c" opacity="0.45"/>
<circle cx="670.9" cy="98.8" r="2.1" fill="#23527c" opacity="0.45"/>
<circle cx="664.0" cy="89.3" r="2.1" fill="#23527c" opacity="0.45"/>
<circle cx="671.0" cy="86.3" r="2.1" fill="#23527c" opacity="0.45"/>
<circle cx="660.1" cy="79.1" r="2.1" fill="#23527c" opacity="0.45"/>
<circle cx="660.0" cy="87.9" r="2.1" fill="#23527c" opacity="0.45"/>
<circle cx="670.0" cy="85.1" r="2.1" fill="#23527c" opacity="0.45"/>
</svg>
